<svg id="Layer_1" data-name="Layer 1" xmlns="http://www.w3.org/2000/svg" viewBox="0 0 322.71 282.59"><defs><style>.cls-1{fill:#fff;stroke-width:14px;}.cls-1,.cls-2{stroke:#231f20;stroke-miterlimit:10;}.cls-2{fill:#231f20;stroke-width:17px;opacity:0.79;}</style></defs><path class="cls-1" d="M377.3,144.34H249.91v-7.88a14,14,0,0,0-13.79-14.16H104A14,14,0,0,0,90.2,136.46v99.25A14,14,0,0,0,104,249.87H231.38v7.87a14,14,0,0,0,13.8,14.16H377.3a14,14,0,0,0,13.8-14.16V158.49A14,14,0,0,0,377.3,144.34Z" transform="translate(-83.2 -115.3)"/><rect class="cls-1" x="7" y="54.41" width="308.71" height="221.18" rx="14.16"/><rect class="cls-2" x="49.73" y="105.04" width="223.53" height="119.92" rx="8.78"/></svg>